<?xml version="1.0" standalone="no"?>
<!DOCTYPE svg PUBLIC "-//W3C//DTD SVG 20010904//EN"
 "http://www.w3.org/TR/2001/REC-SVG-20010904/DTD/svg10.dtd">
<svg version="1.0" xmlns="http://www.w3.org/2000/svg"
 width="256.000000pt" height="256.000000pt" viewBox="0 0 256.000000 256.000000"
 preserveAspectRatio="xMidYMid meet">
<metadata>
Created by potrace 1.11, written by Peter Selinger 2001-2013
</metadata>
<g transform="translate(0.000000,256.000000) scale(0.100000,-0.100000)"
fill="#000000" stroke="none">
<path d="M1211 2395 l-30 -45 22 -11 c12 -7 39 -25 60 -41 40 -32 55 -17 17
17 -32 29 -24 38 25 33 53 -6 52 7 -2 16 -57 9 -71 21 -56 45 7 11 9 23 4 26
-5 3 -23 -15 -40 -40z"/>
<path d="M970 2360 c-23 -5 0 -7 70 -8 81 0 96 2 65 9 -47 9 -87 9 -135 -1z"/>
<path d="M1358 2322 c-5 -16 9 -27 73 -61 85 -46 146 -103 115 -109 -24 -5
-15 -36 37 -125 46 -78 87 -161 87 -177 0 -5 -7 -7 -15 -4 -8 4 -15 12 -15 20
0 8 -4 14 -10 14 -5 0 -10 6 -10 13 0 6 -11 26 -25 42 l-26 30 25 -50 c31 -60
43 -115 27 -115 -6 0 -11 5 -11 10 0 6 -7 10 -15 10 -22 0 -19 -10 12 -42 35
-37 15 -36 -58 4 -65 34 -123 101 -115 131 5 20 -20 101 -41 132 -7 11 -13 28
-13 38 0 17 2 17 23 3 32 -23 152 -173 174 -217 18 -39 38 -55 26 -21 -27 70
-156 233 -212 265 l-31 18 0 -31 c0 -29 9 -64 56 -228 21 -72 29 -159 17 -174
-6 -7 -13 -34 -17 -59 -10 -65 -61 -170 -80 -163 -8 3 -18 19 -21 36 -10 44 5
184 26 247 20 56 24 141 9 176 -10 22 -11 16 -14 -50 -6 -132 -5 -128 -21
-115 -12 10 -16 8 -25 -15 -5 -14 -10 -30 -10 -34 0 -12 -92 -144 -133 -192
l-38 -44 2 90 c3 92 -8 195 -21 195 -4 0 -13 -18 -20 -40 -14 -41 -35 -55 -65
-44 -14 6 -16 15 -12 48 6 43 83 284 111 349 9 20 12 37 7 37 -5 0 -26 -37
-48 -82 -21 -46 -47 -99 -56 -118 l-17 -35 3 32 c2 18 0 30 -5 27 -4 -3 -8
-12 -8 -20 0 -8 -9 -33 -20 -54 -24 -47 -133 -132 -159 -123 -34 12 -41 26
-41 81 l0 55 90 -5 c88 -5 90 -5 90 17 0 30 56 203 76 232 8 14 14 29 12 35
-2 6 -19 -12 -36 -41 l-32 -52 -33 22 c-17 12 -42 31 -53 41 -21 19 -22 19
-28 -6 -8 -31 -36 -34 -43 -6 -6 22 -43 28 -43 6 0 -7 -3 -28 -6 -45 -6 -27
-4 -31 15 -31 11 0 21 -3 21 -7 0 -15 -46 -72 -61 -76 -23 -6 -28 -77 -31
-424 -3 -275 -8 -337 -21 -242 -6 48 -9 52 -32 43 -15 -6 -16 -17 -10 -108 4
-56 9 -117 12 -136 20 -153 39 -398 30 -390 -8 8 -60 212 -85 335 -43 206 -63
348 -71 492 -6 130 -9 144 -19 119 -9 -21 -13 -119 -13 -345 -1 -173 -4 -309
-9 -301 -6 11 -40 426 -40 489 0 6 -4 11 -10 11 -6 0 -10 -29 -10 -67 -1 -85
-31 -228 -52 -249 -15 -15 -16 -13 -22 22 -7 43 5 148 31 264 14 62 18 71 24
50 5 -18 7 -9 7 30 0 30 4 76 10 102 7 25 18 104 26 175 8 70 17 135 21 144 8
21 -49 45 -134 59 -35 5 -66 12 -69 14 -2 3 3 17 12 31 12 19 23 24 34 20 9
-4 46 -9 82 -12 105 -7 113 -10 106 -38 -9 -35 -1 -31 28 12 24 35 25 73 1 40
-11 -15 -20 -15 -104 -2 -51 9 -102 20 -112 25 -23 13 -57 -17 -65 -58 -3 -16
-19 -37 -38 -50 -23 -16 -45 -48 -70 -102 -42 -88 -43 -116 -7 -112 13 1 30
-3 38 -9 11 -10 20 -6 45 19 17 18 34 32 38 32 5 0 15 3 24 6 9 3 16 1 16 -5
0 -6 -12 -16 -26 -21 -14 -6 -40 -21 -59 -35 -24 -19 -40 -24 -59 -19 -21 5
-26 3 -26 -14 0 -21 30 -36 91 -46 20 -4 44 -15 54 -26 16 -18 17 -23 4 -46
-7 -15 -18 -28 -24 -31 -17 -6 -137 52 -168 81 -38 36 -42 33 -16 -13 21 -38
105 -111 128 -111 25 0 9 -40 -30 -75 l-41 -37 31 -44 c17 -25 31 -49 31 -54
0 -6 -18 -17 -40 -26 -22 -9 -50 -30 -62 -48 -12 -17 -32 -43 -46 -58 l-24
-27 67 -31 c58 -27 76 -31 135 -28 38 1 72 -1 76 -5 4 -4 13 -2 21 4 16 14 16
8 3 -176 -20 -291 -55 -526 -120 -794 -22 -90 -40 -165 -40 -167 0 -2 33 -4
74 -4 l74 0 7 48 c3 26 19 115 35 197 15 83 36 193 46 245 13 67 20 168 24
340 6 296 17 249 25 -118 4 -177 3 -252 -4 -247 -7 4 -11 -15 -11 -57 0 -35
-4 -68 -9 -74 -5 -5 -11 -58 -15 -119 -4 -60 -10 -134 -14 -162 l-8 -53 358 0
c197 0 358 3 358 7 0 3 -23 41 -50 84 -58 90 -69 128 -47 159 8 12 13 30 10
41 -6 22 9 25 29 6 7 -6 25 -18 40 -26 24 -12 33 -12 73 3 25 10 49 25 54 34
7 12 23 15 73 13 77 -3 125 20 157 75 11 19 24 34 29 34 11 0 24 -340 16 -393
l-7 -37 65 0 c59 0 66 2 78 25 9 16 16 21 21 14 9 -15 29 -3 29 17 0 27 24 9
34 -24 l9 -32 108 0 c60 0 109 2 109 5 0 3 -7 32 -17 65 -9 33 -14 63 -11 66
14 13 130 -58 156 -96 25 -36 30 -39 76 -40 42 0 47 2 41 18 -37 84 -101 430
-130 702 -14 138 -27 370 -30 525 -1 94 -6 190 -10 214 -6 36 -3 48 13 71 18
24 37 102 33 135 -1 6 -11 10 -24 10 -16 0 -23 7 -25 27 -2 14 -10 32 -18 38
-11 10 -14 8 -14 -12 0 -13 5 -29 11 -35 6 -6 8 -16 5 -22 -9 -14 -46 -14 -46
0 0 6 -9 22 -20 36 -27 35 -25 43 11 43 17 0 28 4 24 10 -3 6 -24 10 -45 10
-27 0 -45 7 -60 22 -24 26 -25 34 -3 46 12 7 14 17 10 41 -6 30 -5 31 21 25
39 -10 52 -23 52 -55 0 -15 5 -31 12 -35 8 -5 9 4 5 33 -6 33 -3 43 14 59 21
19 21 19 -52 29 -62 8 -74 13 -74 29 0 10 8 24 18 30 14 9 21 7 31 -6 17 -23
60 -32 85 -18 19 10 31 42 14 38 -5 0 -15 2 -23 5 -8 3 -28 8 -45 10 -32 3
-25 8 35 24 l35 10 -57 13 c-40 9 -58 18 -61 31 -4 16 -15 19 -64 19 -60 1
-84 12 -96 44 -7 17 -3 18 40 12 l48 -6 -52 25 c-30 14 -60 22 -69 18 -13 -5
-16 -2 -11 9 3 9 -2 22 -11 30 -28 23 -134 66 -182 73 -25 3 -57 8 -71 11 -20
4 -28 0 -31 -14z m173 -40 c56 -34 105 -90 91 -104 -9 -9 -23 0 -61 35 -27 26
-70 57 -95 69 -25 12 -46 25 -46 29 0 12 77 -8 111 -29z m121 -134 c9 -7 23
-25 32 -40 27 -42 -1 -49 -36 -8 -39 47 -36 80 4 48z m-29 -67 c19 -32 23 -66
7 -56 -6 4 -19 24 -30 46 -25 47 -4 56 23 10z m-742 -6 c1 -17 -18 -17 -25 0
-4 11 -1 15 10 13 8 -2 15 -7 15 -13z m959 -25 c0 -25 -7 -28 -88 -32 -52 -4
-62 -2 -60 11 5 23 47 41 101 41 41 0 47 -3 47 -20z m-935 -24 l40 -1 -2 -40
c-4 -64 -4 -64 -90 -58 -43 3 -81 9 -86 12 -4 4 9 29 29 55 27 35 40 45 52 40
10 -4 35 -8 57 -8z m765 -42 c0 -8 -4 -12 -10 -9 -5 3 -10 10 -10 16 0 5 5 9
10 9 6 0 10 -7 10 -16z m137 -19 c2 -18 -62 -84 -71 -74 -2 2 -7 26 -10 52
l-7 48 43 -3 c34 -2 43 -7 45 -23z m16 -71 c3 -3 1 -19 -5 -35 -8 -23 -15 -28
-29 -24 -13 4 -19 2 -19 -9 0 -8 -3 -21 -6 -30 -4 -11 0 -16 14 -16 11 0 25
-7 32 -15 7 -8 20 -15 29 -16 13 0 14 -2 1 -6 -22 -9 -29 -24 -24 -53 6 -30
-4 -47 -31 -52 -17 -3 -21 4 -26 52 -3 30 -11 72 -18 92 -12 35 -11 38 26 77
39 41 45 45 56 35z m-314 -221 c7 -50 24 -101 46 -146 19 -38 35 -75 35 -81 0
-6 -34 -22 -75 -35 -41 -13 -80 -30 -86 -38 -15 -18 -10 -17 67 12 97 37 111
34 136 -22 23 -53 55 -93 74 -93 7 0 15 -4 18 -8 3 -4 -25 -8 -62 -8 -81 0
-163 -34 -205 -83 -27 -33 -35 -61 -17 -61 6 0 10 -13 10 -30 0 -20 5 -30 15
-30 13 0 14 -4 5 -21 -22 -41 -7 -49 87 -49 113 0 128 5 152 46 30 51 45 44
38 -18 -26 -236 -31 -256 -82 -333 -38 -57 -83 -99 -218 -201 -109 -82 -135
-97 -168 -96 -36 1 -126 48 -253 132 -55 36 -110 71 -123 78 -39 22 -71 81
-78 147 -4 32 -8 62 -10 65 -2 4 -6 41 -9 83 -4 73 -4 76 14 67 45 -24 203 -1
199 29 -2 9 1 42 5 74 8 61 22 71 68 46 28 -15 31 -7 12 34 -19 39 -39 50
-127 67 -65 13 -145 6 -195 -17 -18 -9 -35 -13 -39 -10 -10 11 25 55 49 62 70
20 76 25 83 76 8 54 13 58 40 29 21 -23 65 -27 65 -6 0 8 7 16 15 20 11 4 15
-1 15 -17 0 -23 17 -47 32 -47 4 0 8 14 8 30 0 35 2 36 35 14 35 -23 50 -14
27 17 -20 24 -20 25 -1 64 11 21 36 59 57 84 21 26 48 63 61 84 12 20 26 37
30 37 18 0 -22 -146 -64 -236 -25 -53 -45 -101 -45 -105 0 -14 34 -10 55 5 17
12 21 12 30 -1 10 -14 15 -14 43 1 18 9 46 36 64 59 24 33 29 37 24 17 -20
-77 -20 -78 3 -45 27 38 78 162 98 234 8 31 16 89 17 128 0 40 4 73 7 73 4 0
12 -35 18 -77z m147 36 c8 -7 13 -13 11 -15 -4 -5 -110 35 -120 45 -13 13 93
-17 109 -30z m-602 -60 c6 -5 5 -31 -3 -66 -6 -32 -14 -71 -17 -88 -10 -62
-15 -75 -23 -75 -5 0 -5 16 0 37 5 23 4 42 -1 47 -6 6 -10 27 -10 48 l0 38
-30 -32 -30 -31 0 27 c0 15 5 47 11 72 l11 44 42 -6 c22 -4 45 -10 50 -15z
m623 -21 c22 -18 39 -188 19 -188 -14 0 -46 62 -46 90 0 11 -5 20 -11 20 -8 0
-10 -15 -7 -45 3 -25 4 -45 1 -45 -8 0 -63 130 -63 150 0 16 7 20 31 20 19 0
28 4 23 11 -8 13 33 3 53 -13z m323 -18 c-6 -12 -17 -16 -30 -13 -26 7 -25 17
3 30 29 13 40 7 27 -17z m-89 -10 c21 -12 28 -119 23 -380 -4 -266 -18 -313
-28 -95 -4 94 -11 195 -15 225 -7 53 -8 52 -15 -50 -7 -106 -29 -272 -51 -390
l-13 -65 -3 85 c-4 99 -4 130 5 310 4 74 3 187 -2 250 -9 113 -9 113 -12 40
-1 -41 -6 -104 -10 -140 l-7 -65 -2 65 c0 36 -4 102 -8 147 l-6 83 63 -6 c35
-3 71 -9 81 -14z m57 -97 c12 -23 22 -102 15 -119 -10 -27 -21 -13 -27 39 -4
28 -10 62 -13 75 -6 26 12 30 25 5z m-1768 -48 c-7 -8 -17 -12 -22 -9 -5 3 -1
15 9 26 20 22 32 6 13 -17z m883 -10 c-3 -9 -8 -14 -10 -11 -3 3 -2 9 2 15 9
16 15 13 8 -4z m906 -248 c1 -56 -3 -86 -9 -82 -6 4 -10 50 -9 108 0 66 3 95
9 82 5 -11 9 -60 9 -108z m-1179 77 c-18 -21 -24 -10 -9 18 8 14 14 18 17 10
2 -7 -2 -19 -8 -28z m889 -90 c21 -15 23 -22 18 -67 -6 -50 -29 -97 -48 -97
-5 0 -9 8 -7 17 2 11 -6 19 -22 23 -16 4 -25 13 -25 25 0 20 3 20 49 7 16 -4
18 0 14 34 -3 21 -8 47 -12 57 -10 21 3 22 33 1z m-1282 -86 c-3 -7 -5 -2 -5
12 0 14 2 19 5 13 2 -7 2 -19 0 -25z m384 -12 c-15 -17 -2 -54 21 -62 28 -8
19 -39 -12 -39 -22 0 -26 6 -33 48 -6 39 -4 52 10 71 13 18 19 20 21 10 2 -8
-1 -21 -7 -28z m194 -36 c3 -5 4 -14 0 -20 -7 -11 -55 8 -55 22 0 11 48 10 55
-2z m992 -112 c-3 -8 -6 -5 -6 6 -1 11 2 17 5 13 3 -3 4 -12 1 -19z m-242
-197 c-7 -23 -25 -29 -25 -8 0 14 21 39 28 33 2 -3 1 -14 -3 -25z m-948 -103
c-3 -7 -5 -2 -5 12 0 14 2 19 5 13 2 -7 2 -19 0 -25z m49 -139 c14 -52 29
-107 33 -124 7 -33 3 -75 -7 -75 -8 0 -59 201 -68 270 -11 75 13 35 42 -71z
m975 -149 c-6 -187 -8 -206 -15 -146 -12 94 4 381 19 364 2 -2 0 -100 -4 -218z"/>
<path d="M1495 1248 c-29 -16 -65 -50 -65 -62 0 -5 12 2 28 17 15 14 43 33 62
41 24 10 28 15 15 15 -11 0 -29 -5 -40 -11z"/>
<path d="M1290 878 c0 -21 4 -38 9 -38 19 0 22 20 7 47 l-15 28 -1 -37z"/>
<path d="M1365 660 c-3 -5 -2 -10 4 -10 5 0 13 5 16 10 3 6 2 10 -4 10 -5 0
-13 -4 -16 -10z"/>
<path d="M1178 643 c7 -3 16 -2 19 1 4 3 -2 6 -13 5 -11 0 -14 -3 -6 -6z"/>
<path d="M972 2309 c-24 -12 -69 -52 -104 -92 -49 -57 -53 -63 -17 -30 45 43
145 120 164 126 5 3 8 7 4 10 -3 4 -24 -3 -47 -14z"/>
<path d="M620 2231 c0 -33 -7 -46 -37 -75 -21 -20 -32 -36 -25 -36 6 0 12 4
12 10 0 5 21 21 48 36 72 42 73 43 60 68 -26 50 -58 48 -58 -3z"/>
<path d="M543 2216 c-12 -15 -19 -34 -16 -42 7 -20 10 -18 28 17 22 42 14 58
-12 25z"/>
<path d="M610 2130 c-8 -5 -10 -10 -5 -10 6 0 17 5 25 10 8 5 11 10 5 10 -5 0
-17 -5 -25 -10z"/>
<path d="M668 2090 c-21 -29 -51 -39 -63 -21 -3 6 3 14 12 20 15 9 13 10 -13
11 -40 0 -62 -23 -43 -46 7 -9 23 -20 36 -25 19 -7 22 -13 17 -39 -13 -62 37
-19 52 45 4 17 13 42 21 58 18 36 9 34 -19 -3z"/>
<path d="M1480 1879 c0 -3 14 -9 30 -11 17 -3 30 -1 30 4 0 4 -3 8 -7 9 -5 0
-18 2 -30 3 -13 2 -23 -1 -23 -5z"/>
<path d="M1860 1836 c0 -2 8 -10 18 -17 15 -13 16 -12 3 4 -13 16 -21 21 -21
13z"/>
</g>
</svg>
